<svg xmlns="http://www.w3.org/2000/svg" xmlns:xlink="http://www.w3.org/1999/xlink" viewBox="185.60000000000002 252.8 1233.6000000000001 233.6" id="svg1" version="1.1" style="max-height: 500px" width="1233.6000000000001" height="233.6">
  <defs id="defs1">
    
    <clipPath id="clipPath9" clipPathUnits="userSpaceOnUse">
      <path id="path9" transform="translate(-447.06931,-318.22661)" d="M 0,600 H 1200 V 0 H 0 Z"/>
    </clipPath>
    <clipPath id="clipPath11" clipPathUnits="userSpaceOnUse">
      <path id="path11" transform="translate(-500.19631,-250.77831)" d="M 0,600 H 1200 V 0 H 0 Z"/>
    </clipPath>
    <clipPath id="clipPath13" clipPathUnits="userSpaceOnUse">
      <path id="path13" transform="translate(-602.47661,-287.18161)" d="M 0,600 H 1200 V 0 H 0 Z"/>
    </clipPath>
    <clipPath id="clipPath15" clipPathUnits="userSpaceOnUse">
      <path id="path15" transform="translate(-698.19341,-315.45461)" d="M 0,600 H 1200 V 0 H 0 Z"/>
    </clipPath>
    <clipPath id="clipPath17" clipPathUnits="userSpaceOnUse">
      <path id="path17" transform="translate(-770.99904,-287.18161)" d="M 0,600 H 1200 V 0 H 0 Z"/>
    </clipPath>
    <clipPath id="clipPath19" clipPathUnits="userSpaceOnUse">
      <path id="path19" transform="translate(-813.12895,-250.87011)" d="M 0,600 H 1200 V 0 H 0 Z"/>
    </clipPath>
    <clipPath id="clipPath21" clipPathUnits="userSpaceOnUse">
      <path id="path21" d="M 0,600 H 1200 V 0 H 0 Z"/>
    </clipPath>
    <clipPath id="clipPath23" clipPathUnits="userSpaceOnUse">
      <path id="path23" transform="translate(-914.57425,-373.66361)" d="M 0,600 H 1200 V 0 H 0 Z"/>
    </clipPath>
    <clipPath id="clipPath25" clipPathUnits="userSpaceOnUse">
      <path id="path25" transform="translate(-1031.3595,-287.18161)" d="M 0,600 H 1200 V 0 H 0 Z"/>
    </clipPath>
  </defs>
  
    
  
  <g id="layer-MC0">
    <path transform="matrix(1.3333333,0,0,-1.3333333,279.32987,477.24427)" style="fill:#000000 icc-color(sRGB, 0, 0, 0);fill-opacity:1;fill-rule:nonzero;stroke:none" d="m 0,0 -27.651,0.138 49.284,127.586 27.651,-0.138 z" id="path1"/>
    <path transform="matrix(1.3333333,0,0,-1.3333333,368.0772,477.24427)" style="fill:#000000 icc-color(sRGB, 0, 0, 0);fill-opacity:1;fill-rule:nonzero;stroke:none" d="m 0,0 -27.651,0.138 49.284,127.586 27.651,-0.138 z" id="path2"/>
    <path transform="matrix(1.3333333,0,0,-1.3333333,329.9012,363.28867)" style="fill:#000000 icc-color(sRGB, 0, 0, 0);fill-opacity:1;fill-rule:nonzero;stroke:none" d="m 0,0 v -73.53 l 17.858,42.257 v 73.53 z" id="path3"/>
    <path transform="matrix(1.3333333,0,0,-1.3333333,418.0172,363.28867)" style="fill:#000000 icc-color(sRGB, 0, 0, 0);fill-opacity:1;fill-rule:nonzero;stroke:none" d="M 0,0 V -85.452 H 17.858 V 42.257 Z" id="path4"/>
    <path transform="matrix(1.3333333,0,0,-1.3333333,0,800)" style="fill:#000000 icc-color(sRGB, 0, 0, 0);fill-opacity:1;fill-rule:nonzero;stroke:none" d="M 167.946,288.74 H 144 v 23.946 h 23.946 z" id="path5"/>
    <path transform="matrix(1.3333333,0,0,-1.3333333,0,800)" style="fill:#000000 icc-color(sRGB, 0, 0, 0);fill-opacity:1;fill-rule:nonzero;stroke:none" d="M 167.946,242.067 H 144 v 23.946 h 23.946 z" id="path6"/>
    <path transform="matrix(1.3333333,0,0,-1.3333333,510.8464,417.0912)" style="fill:#000000 icc-color(sRGB, 0, 0, 0);fill-opacity:1;fill-rule:nonzero;stroke:none" d="M 0,0 -9.055,63.938 H -9.424 L -18.294,0 Z M -22.175,86.482 H 5.359 L 26.425,-42.871 H 6.098 l -3.696,25.685 v -0.369 h -23.099 l -3.696,-25.316 h -18.848 z" id="path7"/>
    <path clip-path="url(#clipPath9)" transform="matrix(1.3333333,0,0,-1.3333333,596.0924,375.69787)" style="fill:#000000 icc-color(sRGB, 0, 0, 0);fill-opacity:1;fill-rule:nonzero;stroke:none" d="m 0,0 c 4.065,0 7.114,1.045 9.147,3.142 2.033,2.093 3.049,5.604 3.049,10.532 v 9.979 c 0,4.68 -0.831,8.067 -2.494,10.163 -1.664,2.094 -4.283,3.142 -7.854,3.142 h -9.24 V 0 Z M -27.719,55.437 H 2.402 c 10.47,0 18.11,-2.434 22.914,-7.299 4.805,-4.868 7.207,-12.352 7.207,-22.452 V 17.74 c 0,-13.429 -4.435,-21.929 -13.305,-25.501 v -0.37 c 4.926,-1.478 8.408,-4.498 10.441,-9.055 2.032,-4.558 3.049,-10.657 3.049,-18.293 v -22.73 c 0,-3.695 0.121,-6.685 0.369,-8.962 0.246,-2.281 0.861,-4.527 1.848,-6.745 H 14.229 c -0.739,2.094 -1.233,4.065 -1.479,5.913 -0.248,1.848 -0.369,5.174 -0.369,9.979 v 23.653 c 0,5.913 -0.956,10.039 -2.864,12.381 -1.912,2.339 -5.206,3.511 -9.887,3.511 h -7.022 v -55.437 h -20.327 z" id="path8"/>
    <path clip-path="url(#clipPath11)" transform="matrix(1.3333333,0,0,-1.3333333,666.9284,465.62893)" style="fill:#000000 icc-color(sRGB, 0, 0, 0);fill-opacity:1;fill-rule:nonzero;stroke:none" d="m 0,0 c -5.113,5.544 -7.669,13.365 -7.669,23.468 v 69.481 c 0,10.1 2.556,17.925 7.669,23.468 5.11,5.544 12.534,8.316 22.267,8.316 9.731,0 17.154,-2.772 22.267,-8.316 5.111,-5.543 7.669,-13.368 7.669,-23.468 V 79.275 H 32.985 v 14.968 c 0,8.007 -3.39,12.011 -10.163,12.011 -6.777,0 -10.164,-4.004 -10.164,-12.011 V 21.99 c 0,-7.886 3.387,-11.827 10.164,-11.827 6.773,0 10.163,3.941 10.163,11.827 V 41.763 H 52.203 V 23.468 C 52.203,13.365 49.645,5.544 44.534,0 39.421,-5.544 31.998,-8.315 22.267,-8.315 12.534,-8.315 5.11,-5.544 0,0" id="path10"/>
    <path clip-path="url(#clipPath13)" transform="matrix(1.3333333,0,0,-1.3333333,803.30213,417.0912)" style="fill:#000000 icc-color(sRGB, 0, 0, 0);fill-opacity:1;fill-rule:nonzero;stroke:none" d="m 0,0 -9.054,63.938 h -0.37 L -18.294,0 Z M -22.174,86.482 H 5.359 L 26.425,-42.871 H 6.099 l -3.697,25.685 v -0.369 h -23.098 l -3.696,-25.316 h -18.849 z" id="path12"/>
    <path clip-path="url(#clipPath15)" transform="matrix(1.3333333,0,0,-1.3333333,930.92453,379.39387)" style="fill:#000000 icc-color(sRGB, 0, 0, 0);fill-opacity:1;fill-rule:nonzero;stroke:none" d="m 0,0 c 3.326,0 5.82,0.924 7.483,2.772 1.663,1.848 2.496,4.989 2.496,9.424 v 15.338 c 0,4.435 -0.833,7.576 -2.496,9.424 C 5.82,38.806 3.326,39.73 0,39.73 H -9.609 V 0 Z M -29.937,58.209 H 0 c 10.1,0 17.676,-2.711 22.729,-8.131 5.049,-5.422 7.577,-13.368 7.577,-23.838 V 13.49 C 30.306,3.018 27.778,-4.929 22.729,-10.348 17.676,-15.771 10.1,-18.479 0,-18.479 h -9.609 v -52.665 h -20.328 z" id="path14"/>
    <path clip-path="url(#clipPath17)" transform="matrix(1.3333333,0,0,-1.3333333,1027.9987,417.0912)" style="fill:#000000 icc-color(sRGB, 0, 0, 0);fill-opacity:1;fill-rule:nonzero;stroke:none" d="M 0,0 -9.055,63.938 H -9.424 L -18.294,0 Z M -6.468,116.418 H 15.707 L -4.065,95.167 H -19.402 Z M -22.175,86.482 H 5.359 L 26.425,-42.871 H 6.099 l -3.697,25.685 v -0.369 h -23.098 l -3.696,-25.316 H -43.24 Z" id="path16"/>
    <path clip-path="url(#clipPath19)" transform="matrix(1.3333333,0,0,-1.3333333,1084.1719,465.50653)" style="fill:#000000 icc-color(sRGB, 0, 0, 0);fill-opacity:1;fill-rule:nonzero;stroke:none" d="m 0,0 c -5.174,5.604 -7.762,13.644 -7.762,24.115 v 68.003 c 0,10.47 2.588,18.508 7.762,24.115 5.174,5.605 12.687,8.408 22.544,8.408 9.854,0 17.37,-2.803 22.545,-8.408 5.174,-5.607 7.761,-13.645 7.761,-24.115 V 81.031 H 33.632 v 12.381 c 0,8.5 -3.511,12.75 -10.533,12.75 -7.023,0 -10.534,-4.25 -10.534,-12.75 V 22.638 c 0,-8.38 3.511,-12.567 10.534,-12.567 7.022,0 10.533,4.187 10.533,12.567 V 47.953 H 23.468 v 18.48 H 52.85 V 24.115 C 52.85,13.644 50.263,5.604 45.089,0 39.914,-5.606 32.398,-8.407 22.544,-8.407 12.687,-8.407 5.174,-5.606 0,0" id="path18"/>
    <path clip-path="url(#clipPath21)" transform="matrix(1.3333333,0,0,-1.3333333,0,800)" style="fill:#000000 icc-color(sRGB, 0, 0, 0);fill-opacity:1;fill-rule:nonzero;stroke:none" d="m 879.097,373.664 h 20.327 V 244.311 h -20.327 z" id="path20"/>
    <path clip-path="url(#clipPath23)" transform="matrix(1.3333333,0,0,-1.3333333,1219.4323,301.78187)" style="fill:#000000 icc-color(sRGB, 0, 0, 0);fill-opacity:1;fill-rule:nonzero;stroke:none" d="m 0,0 h 25.501 l 19.772,-77.427 h 0.371 V 0 H 63.753 V -129.353 H 42.871 l -24.392,94.428 h -0.37 v -94.428 H 0 Z" id="path22"/>
    <path clip-path="url(#clipPath25)" transform="matrix(1.3333333,0,0,-1.3333333,1375.1459,417.0912)" style="fill:#000000 icc-color(sRGB, 0, 0, 0);fill-opacity:1;fill-rule:nonzero;stroke:none" d="M 0,0 -9.055,63.938 H -9.424 L -18.294,0 Z M -22.175,86.482 H 5.359 L 26.425,-42.871 H 6.099 l -3.697,25.685 v -0.369 h -23.098 l -3.696,-25.316 H -43.24 Z" id="path24"/>
  </g>
</svg>